<svg xmlns="http://www.w3.org/2000/svg" viewBox="0 0 1200 680" role="img" aria-labelledby="title desc"><title id="title">Password manager choice map</title><desc id="desc">A decision map matches simple ecosystems, cross-platform use, family recovery, privacy aliases and local control with an appropriate password manager category, then routes every choice to recovery, multifactor authentication and exports.</desc><rect width="1200" height="680" rx="28" fill="#081417"/><defs><linearGradient id="g" x1="0" x2="1"><stop stop-color="#71f5cc"/><stop offset="1" stop-color="#4cc9ff"/></linearGradient></defs><text x="68" y="65" fill="#9bb2b6" font-family="system-ui,sans-serif" font-size="18" letter-spacing="5">PASSWORD MANAGER CHOICE MAP</text><text x="68" y="106" fill="#effdf9" font-family="system-ui,sans-serif" font-size="28" font-weight="700">Choose by operating constraint—not by the longest feature page.</text><g font-family="system-ui,sans-serif"><g transform="translate(68 160)"><rect width="196" height="200" rx="17" fill="#10282b" stroke="#27565a"/><text x="20" y="37" fill="#71f5cc" font-size="14" letter-spacing="2">SIMPLE ECOSYSTEM</text><text x="20" y="78" fill="#fff" font-size="22" font-weight="700">Built-in vault</text><text x="20" y="112" fill="#a9bec1" font-size="15"><tspan x="20" dy="0">One platform.</tspan><tspan x="20" dy="25">Light sharing.</tspan><tspan x="20" dy="25">Lowest setup burden.</tspan></text></g><g transform="translate(285 160)"><rect width="196" height="200" rx="17" fill="#10282b" stroke="#27565a"/><text x="20" y="37" fill="#71f5cc" font-size="14" letter-spacing="2">CROSS-PLATFORM</text><text x="20" y="78" fill="#fff" font-size="22" font-weight="700">Bitwarden</text><text x="20" y="112" fill="#a9bec1" font-size="15"><tspan x="20" dy="0">Mixed devices.</tspan><tspan x="20" dy="25">Strong free tier.</tspan><tspan x="20" dy="25">Visible control.</tspan></text></g><g transform="translate(502 160)"><rect width="196" height="200" rx="17" fill="#10282b" stroke="#27565a"/><text x="20" y="37" fill="#71f5cc" font-size="14" letter-spacing="2">FAMILY RECOVERY</text><text x="20" y="78" fill="#fff" font-size="22" font-weight="700">1Password</text><text x="20" y="112" fill="#a9bec1" font-size="15"><tspan x="20" dy="0">Shared + private vaults.</tspan><tspan x="20" dy="25">Organizer recovery.</tspan><tspan x="20" dy="25">Managed roles.</tspan></text></g><g transform="translate(719 160)"><rect width="196" height="200" rx="17" fill="#10282b" stroke="#27565a"/><text x="20" y="37" fill="#71f5cc" font-size="14" letter-spacing="2">PRIVACY + ALIASES</text><text x="20" y="78" fill="#fff" font-size="22" font-weight="700">Proton Pass</text><text x="20" y="112" fill="#a9bec1" font-size="15"><tspan x="20" dy="0">Email aliases.</tspan><tspan x="20" dy="25">Encrypted metadata.</tspan><tspan x="20" dy="25">Proton ecosystem.</tspan></text></g><g transform="translate(936 160)"><rect width="196" height="200" rx="17" fill="#10282b" stroke="#27565a"/><text x="20" y="37" fill="#71f5cc" font-size="14" letter-spacing="2">LOCAL CONTROL</text><text x="20" y="78" fill="#fff" font-size="22" font-weight="700">KeePassXC</text><text x="20" y="112" fill="#a9bec1" font-size="15"><tspan x="20" dy="0">Local vault file.</tspan><tspan x="20" dy="25">No required cloud.</tspan><tspan x="20" dy="25">You own operations.</tspan></text></g><path d="M166 382V430M383 382V430M600 382V430M817 382V430M1034 382V430" stroke="#53d9d1" stroke-width="3"/><path d="M166 430H1034" stroke="#53d9d1" stroke-width="3"/><path d="M600 430V473" stroke="#53d9d1" stroke-width="3"/><rect x="255" y="473" width="690" height="112" rx="18" fill="url(#g)" opacity=".17" stroke="#61e5d3"/><text x="600" y="515" text-anchor="middle" fill="#effdf9" font-size="23" font-weight="700">Every choice still needs an operating plan</text><text x="600" y="550" text-anchor="middle" fill="#b9d1d2" font-size="17">Strong master passphrase · MFA · recovery drill · verified export</text></g><text x="68" y="636" fill="#6e898c" font-family="system-ui,sans-serif" font-size="15">Life in the Simulation · original editorial diagram · no product logos or affiliate images · 2026</text></svg>